<svg xmlns="http://www.w3.org/2000/svg" viewBox="0 0 600 600">
  <defs>
    <linearGradient id="grad1" x1="0%" y1="0%" x2="100%" y2="0%">
      <stop offset="0%" style="stop-color:#00c2ff;stop-opacity:1" />
      <stop offset="100%" style="stop-color:#7b2ff7;stop-opacity:1" />
    </linearGradient>
    <linearGradient id="grad2" x1="0%" y1="0%" x2="100%" y2="0%">
      <stop offset="0%" style="stop-color:#7b2ff7;stop-opacity:1" />
      <stop offset="100%" style="stop-color:#ff2d87;stop-opacity:1" />
    </linearGradient>
    <linearGradient id="grad3" x1="0%" y1="0%" x2="100%" y2="0%">
      <stop offset="0%" style="stop-color:#00c2ff;stop-opacity:1" />
      <stop offset="100%" style="stop-color:#ff2d87;stop-opacity:1" />
    </linearGradient>
  </defs>
  <path d="M300,150 C360,150 410,200 410,260 C410,320 360,370 300,370 C240,370 190,320 190,260 C190,200 240,150 300,150 Z" fill="none" stroke="url(#grad1)" stroke-width="60" opacity="0.8" />
  <path d="M230,240 C290,240 340,290 340,350 C340,410 290,460 230,460 C170,460 120,410 120,350 C120,290 170,240 230,240 Z" fill="none" stroke="url(#grad2)" stroke-width="60" opacity="0.8" />
  <path d="M370,240 C430,240 480,290 480,350 C480,410 430,460 370,460 C310,460 260,410 260,350 C260,290 310,240 370,240 Z" fill="none" stroke="url(#grad3)" stroke-width="60" opacity="0.8" />
</svg>
